<?xml version="1.0" encoding="utf-8"?>
<!-- Generator: Adobe Illustrator 27.5.0, SVG Export Plug-In . SVG Version: 6.00 Build 0)  -->
<svg version="1.1" id="Layer_1" xmlns="http://www.w3.org/2000/svg" xmlns:xlink="http://www.w3.org/1999/xlink" x="0px" y="0px"
	 viewBox="0 0 220.25 158.94" style="enable-background:new 0 0 220.25 158.94;" xml:space="preserve">
<style type="text/css">
	.st0{fill:#DBAF77;}
	.st1{font-family:'ElsieBlack-Regular';}
	.st2{font-size:68.1587px;}
	.st3{font-family:'Roboto-Regular';}
	.st4{font-size:17.4872px;}
	.st5{letter-spacing:3;}
	.st6{fill:none;stroke:#DBAF77;stroke-width:1.3;stroke-linecap:round;stroke-miterlimit:10;}
</style>
<text transform="matrix(1 0 0 1 4.9375 128.3041)" class="st0 st1 st2">Mares</text>
<text transform="matrix(1 0 0 1 44.5505 152.5551)" class="st0 st3 st4 st5">Charcuterie</text>
<g>
	<g>
		<path class="st6" d="M-308.54,69.92c27.46-24.36,63.92-38.35,100.63-38.61c36.71-0.26,73.36,13.21,101.17,37.19"/>
		<path class="st6" d="M-290.26,56.05c-2.99-15.92,7.48-36.42,20.97-45.37"/>
		<path class="st6" d="M-268.89,10.35c2.35,6.52,1.55,16.58-0.4,23.23c-1.95,6.65-6.88,13.12-12.38,17.33"/>
		<path class="st6" d="M-269.38,12.51c-5.06,11.19-12.12,29.71-21.12,42.14"/>
		<path class="st6" d="M-261.23,41.4c3.99,7.87,8.72,14.43,16.56,18.48c7.84,4.04,20.25,6.62,28.98,5.31"/>
		<path class="st6" d="M-215.69,65.19c0.67-6.1-4.77-12.26-9.31-16.4c-4.54-4.14-10.52-6.43-16.57-7.49
			c-6.05-1.06-15.07-1.56-19.66,0.1"/>
		<path class="st6" d="M-259.63,41.71c15.46,4.53,29.24,13.37,42.78,22.09"/>
		<path class="st6" d="M-187.83,33.81c1.1,8.53,3.31,16.11,9.2,22.38c5.89,6.27,16.46,12.69,24.9,14.33"/>
		<path class="st6" d="M-153.73,70.51c2.61-5.39-0.39-12.83-3.21-18.11c-2.83-5.28-7.57-9.34-12.79-12.28
			c-5.21-2.95-13.34-6.35-18.1-6.32"/>
		<path class="st6" d="M-186.46,34.61c12.73,9.21,22.51,21.82,32.12,34.25"/>
		<path class="st6" d="M-187.56,3.1c-21.02,0-35.79,13.77-42.44,28.46"/>
		<path class="st6" d="M-229.6,31.53c9.18,1.33,18.83-0.88,26.52-6.08c7.69-5.2,13.33-13.33,15.52-22.35"/>
		<path class="st6" d="M-230.16,32.72c13.86-9.66,27.72-19.31,41.58-28.97"/>
		<path class="st6" d="M-110.77,37.03c-12.83-9.52-31.39-6.8-41.25,3.48"/>
		<path class="st6" d="M-151.74,40.64c5.64,4.13,12.85,6.07,19.81,5.33c6.96-0.74,16.52-3.71,21.17-8.94"/>
		<path class="st6" d="M-151.15,41.06c12.64-1.53,26.82-2.43,39.46-3.96"/>
	</g>
	<g>
		<path class="st6" d="M-111.12,200.86c-27.46,24.36-63.92,38.35-100.63,38.61c-36.71,0.26-73.36-13.21-101.17-37.19"/>
		<path class="st6" d="M-129.41,214.73c2.99,15.92-7.48,36.42-20.97,45.37"/>
		<path class="st6" d="M-150.78,260.43c-2.35-6.52-1.55-16.58,0.4-23.23c1.95-6.65,6.88-13.12,12.38-17.33"/>
		<path class="st6" d="M-150.29,258.27c5.06-11.19,12.12-29.71,21.12-42.14"/>
		<path class="st6" d="M-158.43,229.38c-3.99-7.87-8.72-14.43-16.56-18.48c-7.84-4.04-20.25-6.62-28.98-5.31"/>
		<path class="st6" d="M-203.97,205.59c-0.67,6.1,4.77,12.26,9.31,16.4c4.54,4.14,10.52,6.43,16.57,7.49
			c6.05,1.06,15.07,1.56,19.66-0.1"/>
		<path class="st6" d="M-160.04,229.08c-15.46-4.53-29.24-13.37-42.78-22.09"/>
		<path class="st6" d="M-231.83,236.98c-1.1-8.53-3.31-16.11-9.2-22.38c-5.89-6.27-16.46-12.69-24.9-14.33"/>
		<path class="st6" d="M-265.93,200.27c-2.61,5.39,0.39,12.83,3.21,18.11c2.83,5.28,7.57,9.34,12.79,12.28
			c5.21,2.95,13.34,6.35,18.1,6.32"/>
		<path class="st6" d="M-233.21,236.17c-12.73-9.21-22.51-21.82-32.12-34.25"/>
		<path class="st6" d="M-232.1,267.68c21.02,0,35.79-13.77,42.44-28.46"/>
		<path class="st6" d="M-190.07,239.25c-9.18-1.33-18.83,0.88-26.52,6.08c-7.69,5.2-13.33,13.33-15.52,22.35"/>
		<path class="st6" d="M-189.5,238.06c-13.86,9.66-27.72,19.31-41.58,28.97"/>
		<path class="st6" d="M-308.9,233.75c12.83,9.52,31.39,6.8,41.25-3.48"/>
		<path class="st6" d="M-267.93,230.15c-5.64-4.13-12.85-6.07-19.81-5.33c-6.96,0.74-16.52,3.71-21.17,8.94"/>
		<path class="st6" d="M-268.52,229.72c-12.64,1.53-26.82,2.43-39.46,3.96"/>
	</g>
</g>
<text transform="matrix(1 0 0 1 -311.9813 148.4717)" class="st0 st1 st2">Mares</text>
<text transform="matrix(1 0 0 1 -272.3683 172.7227)" class="st0 st3 st4 st5">Charcuterie</text>
<g>
	<path class="st6" d="M11.42,76.15c27.46-24.36,63.92-38.35,100.63-38.61c36.71-0.26,73.36,13.21,101.17,37.19"/>
	<path class="st6" d="M29.7,62.28c-2.99-15.92,7.48-36.42,20.97-45.37"/>
	<path class="st6" d="M51.08,16.58c2.35,6.52,1.55,16.58-0.4,23.23c-1.95,6.65-6.88,13.12-12.38,17.33"/>
	<path class="st6" d="M50.59,18.74c-5.06,11.19-12.12,29.71-21.12,42.14"/>
	<path class="st6" d="M58.73,47.63c3.99,7.87,8.72,14.43,16.56,18.48c7.84,4.04,20.25,6.62,28.98,5.31"/>
	<path class="st6" d="M104.27,71.41c0.67-6.1-4.77-12.26-9.31-16.4c-4.54-4.14-10.52-6.43-16.57-7.49
		c-6.05-1.06-15.07-1.56-19.66,0.1"/>
	<path class="st6" d="M60.34,47.93c15.46,4.53,29.24,13.37,42.78,22.09"/>
	<path class="st6" d="M132.13,40.03c1.1,8.53,3.31,16.11,9.2,22.38c5.89,6.27,16.46,12.69,24.9,14.33"/>
	<path class="st6" d="M166.23,76.74c2.61-5.39-0.39-12.83-3.21-18.11c-2.83-5.28-7.57-9.34-12.79-12.28
		c-5.21-2.95-13.34-6.35-18.1-6.32"/>
	<path class="st6" d="M133.51,40.83c12.73,9.21,22.51,21.82,32.12,34.25"/>
	<path class="st6" d="M132.4,9.33c-21.02,0-35.79,13.77-42.44,28.46"/>
	<path class="st6" d="M90.37,37.76c9.18,1.33,18.83-0.88,26.52-6.08c7.69-5.2,13.33-13.33,15.52-22.35"/>
	<path class="st6" d="M89.8,38.95c13.86-9.66,27.72-19.31,41.58-28.97"/>
	<path class="st6" d="M209.19,43.25c-12.83-9.52-31.39-6.8-41.25,3.48"/>
	<path class="st6" d="M168.22,46.86c5.64,4.13,12.85,6.07,19.81,5.33s16.52-3.71,21.17-8.94"/>
	<path class="st6" d="M168.82,47.28c12.64-1.53,26.82-2.43,39.46-3.96"/>
</g>
</svg>
